<svg xmlns="http://www.w3.org/2000/svg" xmlns:xlink="http://www.w3.org/1999/xlink" viewBox="0 0 1190.55 841.89"><defs><style>.cls-1,.cls-17,.cls-18{fill:none;}.cls-2{clip-path:url(#clip-path);}.cls-3{fill:#e54545;}.cls-4{fill:#1d1721;}.cls-5{fill:#0058b7;}.cls-6{fill:#fff;}.cls-7{clip-path:url(#clip-path-3);}.cls-10,.cls-13,.cls-14,.cls-8,.cls-9{font-size:10.49px;}.cls-10,.cls-11,.cls-12,.cls-13,.cls-14,.cls-15,.cls-16,.cls-8,.cls-9{fill:#1d1621;}.cls-12,.cls-8{font-family:MrEavesModOT-Reg, Mr Eaves Mod OT;}.cls-9{font-family:MrEavesModOT-Light, Mr Eaves Mod OT;font-weight:300;}.cls-10{font-family:MrEavesModOT-Bold, Mr Eaves Mod OT;}.cls-10,.cls-13,.cls-15,.cls-16{font-weight:700;}.cls-12{font-size:8.99px;}.cls-13,.cls-15,.cls-16{font-family:HelveticaNeue-Bold, Helvetica Neue;}.cls-14{font-family:HelveticaNeue-Italic, Helvetica Neue;font-style:italic;}.cls-15{font-size:36px;}.cls-16{font-size:21px;}.cls-17,.cls-18{stroke:#1d1621;stroke-miterlimit:10;}.cls-18{stroke-width:2px;}</style><clipPath id="clip-path"><rect class="cls-1" x="1062.66" y="28.35" width="99.55" height="99.21"/></clipPath><clipPath id="clip-path-3"><rect class="cls-1" x="28.35" y="789.36" width="737.01" height="32.69"/></clipPath></defs><g id="Voorgrond"><g id="Tiltshift_logo_op_wit" data-name="Tiltshift logo op wit"><g class="cls-2"><polygon class="cls-3" points="1079.13 31.64 1078.99 32.99 1071.37 103.66 1068.41 103.34 1075.92 33.32 1075.96 32.99 1076.1 31.64 1062.66 31.64 1062.66 117.06 1079.43 117.06 1079.48 116.54 1084.24 117.06 1148.07 117.06 1148.07 39.03 1147.89 39.01 1092.03 32.99 1079.51 31.64 1079.13 31.64"/><polygon class="cls-3" points="1119.8 32.99 1147.89 36.01 1148.07 36.03 1148.07 31.64 1107.21 31.64 1119.8 32.99"/><polygon class="cls-4" points="1075.92 33.32 1068.41 103.35 1071.37 103.66 1078.99 32.99 1079.13 31.64 1076.1 31.64 1075.96 32.99 1075.92 33.32"/><polygon class="cls-4" points="1147.89 36.01 1119.8 32.99 1107.21 31.64 1079.51 31.64 1092.03 32.99 1147.89 39.01 1148.07 39.03 1148.07 36.02 1147.89 36.01"/><polygon class="cls-4" points="1079.43 117.06 1084.24 117.06 1079.48 116.54 1079.43 117.06"/><polygon class="cls-5" points="1151.48 124.3 1084.24 117.06 1079.43 117.06 1079.16 119.52 1082.73 119.9 1110.82 122.91 1149.19 127.03 1154.16 127.56 1154.66 122.91 1154.7 122.58 1162.2 52.56 1159.25 52.24 1151.48 124.3"/><polygon class="cls-5" points="1076.46 28.35 1076.1 31.64 1079.13 31.64 1079.14 31.6 1079.51 31.64 1107.21 31.64 1081.43 28.88 1076.46 28.35"/><polygon class="cls-5" points="1148.07 36.02 1148.07 39.03 1151.14 39.36 1151.46 36.39 1148.07 36.02"/><rect class="cls-6" x="1111.41" y="90.9" width="2.97" height="17.41"/><g class="cls-2"><path class="cls-6" d="M1087.43,108.47a8.81,8.81,0,0,1-2.81-.47,10.17,10.17,0,0,1-2.63-1.27l.61-2.33a9.4,9.4,0,0,0,2.5,1.32,7.85,7.85,0,0,0,2.57.44,2.26,2.26,0,0,0,2.5-2.46,2,2,0,0,0-.71-1.62,9.79,9.79,0,0,0-2.58-1.27,10.42,10.42,0,0,1-3.64-2,4,4,0,0,1-1.19-3.07,4.79,4.79,0,0,1,1.42-3.63,5.34,5.34,0,0,1,3.85-1.36,8.22,8.22,0,0,1,2.74.47,7.46,7.46,0,0,1,2.27,1.23l-.48,2.24a9.51,9.51,0,0,0-2.25-1.21,6.43,6.43,0,0,0-2.21-.42,2.53,2.53,0,0,0-1.76.59,2.14,2.14,0,0,0-.64,1.64,2,2,0,0,0,.68,1.59,10.06,10.06,0,0,0,2.72,1.3,9.45,9.45,0,0,1,3.63,2,4.17,4.17,0,0,1,1.11,3.06,5,5,0,0,1-1.49,3.77,5.77,5.77,0,0,1-4.21,1.45"/><polygon class="cls-6" points="1096.31 108.32 1096.31 90.91 1099.27 90.91 1099.27 97.63 1104.47 97.63 1104.47 90.91 1107.43 90.91 1107.43 108.32 1104.47 108.32 1104.47 99.94 1099.27 99.94 1099.27 108.32 1096.31 108.32"/><polygon class="cls-6" points="1118.35 108.32 1118.35 90.91 1128.17 90.91 1128.17 93.21 1121.31 93.21 1121.31 99.31 1127.02 99.31 1127.02 101.61 1121.31 101.61 1121.31 108.32 1118.35 108.32"/><polygon class="cls-6" points="1134.81 108.32 1134.81 93.21 1130.73 93.21 1130.73 90.91 1141.84 90.91 1141.84 93.21 1137.77 93.21 1137.77 108.32 1134.81 108.32"/><polygon class="cls-6" points="1100.39 85.93 1100.39 70.83 1096.32 70.83 1096.32 68.52 1107.42 68.52 1107.42 70.83 1103.35 70.83 1103.35 85.93 1100.39 85.93"/><polygon class="cls-6" points="1111.41 68.52 1111.41 85.93 1112.69 85.93 1114.38 85.93 1114.38 70.26 1114.38 68.52 1111.41 68.52"/><polygon class="cls-6" points="1134.81 85.93 1134.81 70.83 1130.73 70.83 1130.73 68.52 1141.84 68.52 1141.84 70.83 1137.77 70.83 1137.77 85.93 1134.81 85.93"/><polygon class="cls-6" points="1118.35 85.93 1118.35 68.52 1121.31 68.52 1121.31 83.63 1128.19 83.63 1128.19 85.93 1118.35 85.93"/></g></g></g><g id="Artwork_1" data-name="Artwork 1"><g class="cls-7"><text class="cls-8" transform="translate(182.47 800.37)">This </text><text class="cls-8" transform="translate(200.31 800.37)">w</text><text class="cls-8" transform="translate(206.6 800.37)">ork is licensed under </text><text class="cls-8" transform="translate(284.02 800.37)">A</text><text class="cls-8" transform="translate(290.08 800.37)">ttribution-Sha</text><text class="cls-8" transform="translate(343.61 800.37)">r</text><text class="cls-8" transform="translate(346.57 800.37)">eAli</text><text class="cls-8" transform="translate(361.27 800.37)">k</text><text class="cls-8" transform="translate(365.33 800.37)">e 4</text><text class="cls-8" transform="translate(376.89 800.37)">.</text><text class="cls-8" transform="translate(379.21 800.37)">0 International (</text><text class="cls-8" transform="translate(441.18 800.37)">C</text><text class="cls-8" transform="translate(447.49 800.37)">C </text><text class="cls-8" transform="translate(455.7 800.37)">B</text><text class="cls-8" transform="translate(460.59 800.37)">Y</text><text class="cls-8" transform="translate(465.29 800.37)">-</text><text class="cls-8" transform="translate(468.33 800.37)">S</text><text class="cls-8" transform="translate(473.22 800.37)">A 4</text><text class="cls-8" transform="translate(486.6 800.37)">.</text><text class="cls-8" transform="translate(488.92 800.37)">0)</text><text class="cls-8" transform="translate(182.48 812.24)">https:/</text><text class="cls-8" transform="translate(207.67 812.24)">/</text><text class="cls-8" transform="translate(210.41 812.24)">c</text><text class="cls-8" transform="translate(214.44 812.24)">r</text><text class="cls-8" transform="translate(217.4 812.24)">eati</text><text class="cls-8" transform="translate(231.75 812.24)">v</text><text class="cls-8" transform="translate(235.67 812.24)">ecommons.o</text><text class="cls-8" transform="translate(284.31 812.24)">r</text><text class="cls-8" transform="translate(287.27 812.24)">g/licenses/by-sa</text><text class="cls-8" transform="translate(348.48 812.24)">/</text><text class="cls-8" transform="translate(351.11 812.24)">4</text><text class="cls-8" transform="translate(356.51 812.24)">.</text><text class="cls-8" transform="translate(358.83 812.24)">0</text><text class="cls-8" transform="translate(364.31 812.24)">/</text><text class="cls-9" transform="translate(650.41 812.24)">datum</text><text class="cls-10" transform="translate(673.55 812.24)"> </text><text class="cls-8" transform="translate(675.37 812.24)">29 n</text><text class="cls-8" transform="translate(692.15 812.24)">o</text><text class="cls-8" transform="translate(697 812.24)">v</text><text class="cls-8" transform="translate(700.92 812.24)">ember 2020 </text><text class="cls-9" transform="translate(650.41 800.37)">v</text><text class="cls-9" transform="translate(654.03 800.37)">ersie</text><text class="cls-8" transform="translate(669.85 800.37)"> </text><text class="cls-8" transform="translate(671.66 800.37)">2</text><text class="cls-8" transform="translate(676.11 800.37)">.</text><text class="cls-8" transform="translate(678.43 800.37)">1</text><rect class="cls-11" x="173.48" y="789.36" width="0.5" height="28.33"/><rect class="cls-11" x="505.7" y="789.36" width="0.5" height="28.33"/><text class="cls-12" transform="translate(514.57 797.86)">designed by</text><text class="cls-13" transform="translate(514.57 811.34)">Tiltshift </text><text class="cls-14" transform="translate(554.76 811.34)">good public tech</text><g class="cls-7"><path class="cls-11" d="M67.37,793.5a10,10,0,1,0,10,10,10,10,0,0,0-10-10m0,18.9a8.88,8.88,0,1,1,8.88-8.88,8.89,8.89,0,0,1-8.88,8.88"/><path class="cls-11" d="M72.23,800.59a.57.57,0,0,0-.43-.17H69.44v-2.36a.58.58,0,0,0-.6-.6h-6a.67.67,0,0,0-.38.2.54.54,0,0,0-.16.4v8a.62.62,0,0,0,.6.6H65.3V809a.58.58,0,0,0,.6.6h5.9a.58.58,0,0,0,.6-.6v-8a.61.61,0,0,0-.17-.43m-6.41-.17a.59.59,0,0,0-.36.2.54.54,0,0,0-.16.4v4.43H63.52v-6.79h4.74v1.76Zm5.4,8H66.48V801.6h4.74Zm1-7.8a.57.57,0,0,0-.43-.17H69.44v-2.36a.58.58,0,0,0-.6-.6h-6a.67.67,0,0,0-.38.2.54.54,0,0,0-.16.4v8a.62.62,0,0,0,.6.6H65.3V809a.58.58,0,0,0,.6.6h5.9a.58.58,0,0,0,.6-.6v-8a.61.61,0,0,0-.17-.43m-6.41-.17a.59.59,0,0,0-.36.2.54.54,0,0,0-.16.4v4.43H63.52v-6.79h4.74v1.76Zm5.4,8H66.48V801.6h4.74Zm1-7.8a.57.57,0,0,0-.43-.17H69.44v-2.36a.58.58,0,0,0-.6-.6h-6a.67.67,0,0,0-.38.2.54.54,0,0,0-.16.4v8a.62.62,0,0,0,.6.6H65.3V809a.58.58,0,0,0,.6.6h5.9a.58.58,0,0,0,.6-.6v-8a.61.61,0,0,0-.17-.43m-6.41-.17a.59.59,0,0,0-.36.2.54.54,0,0,0-.16.4v4.43H63.52v-6.79h4.74v1.76Zm5.4,8H66.48V801.6h4.74Zm1-7.8a.57.57,0,0,0-.43-.17H69.44v-2.36a.58.58,0,0,0-.6-.6h-6a.67.67,0,0,0-.38.2.54.54,0,0,0-.16.4v8a.62.62,0,0,0,.6.6H65.3V809a.58.58,0,0,0,.6.6h5.9a.58.58,0,0,0,.6-.6v-8a.61.61,0,0,0-.17-.43m-6.41-.17a.59.59,0,0,0-.36.2.54.54,0,0,0-.16.4v4.43H63.52v-6.79h4.74v1.76Zm5.4,8H66.48V801.6h4.74Zm1-7.8a.57.57,0,0,0-.43-.17H69.44v-2.36a.58.58,0,0,0-.6-.6h-6a.67.67,0,0,0-.38.2.54.54,0,0,0-.16.4v8a.62.62,0,0,0,.6.6H65.3V809a.58.58,0,0,0,.6.6h5.9a.58.58,0,0,0,.6-.6v-8a.61.61,0,0,0-.17-.43m-6.41-.17a.59.59,0,0,0-.36.2.54.54,0,0,0-.16.4v4.43H63.52v-6.79h4.74v1.76Zm5.4,8H66.48V801.6h4.74Z"/><path class="cls-11" d="M100.45,799.33a5.25,5.25,0,0,0-4.06-1.64,4.7,4.7,0,0,0-3.15,1.09,4.84,4.84,0,0,0-1.61,3.09h-.85L92.93,804l2.14-2.15h-.79a2.44,2.44,0,0,1,4.28-1,5.57,5.57,0,0,1-.06,5.26,2.17,2.17,0,0,1-1.84,1c-1.52,0-2.32-.65-2.38-2H91.55a4.68,4.68,0,0,0,1.61,3.13,4.8,4.8,0,0,0,3.17,1.1,5.34,5.34,0,0,0,4.06-1.65,5.76,5.76,0,0,0,1.57-4.15,6,6,0,0,0-1.51-4.22m0,0a5.25,5.25,0,0,0-4.06-1.64,4.7,4.7,0,0,0-3.15,1.09,4.84,4.84,0,0,0-1.61,3.09h-.85L92.93,804l2.14-2.15h-.79a2.44,2.44,0,0,1,4.28-1,5.57,5.57,0,0,1-.06,5.26,2.17,2.17,0,0,1-1.84,1c-1.52,0-2.32-.65-2.38-2H91.55a4.68,4.68,0,0,0,1.61,3.13,4.8,4.8,0,0,0,3.17,1.1,5.34,5.34,0,0,0,4.06-1.65,5.76,5.76,0,0,0,1.57-4.15,6,6,0,0,0-1.51-4.22m0,0a5.25,5.25,0,0,0-4.06-1.64,4.7,4.7,0,0,0-3.15,1.09,4.84,4.84,0,0,0-1.61,3.09h-.85L92.93,804l2.14-2.15h-.79a2.44,2.44,0,0,1,4.28-1,5.57,5.57,0,0,1-.06,5.26,2.17,2.17,0,0,1-1.84,1c-1.52,0-2.32-.65-2.38-2H91.55a4.68,4.68,0,0,0,1.61,3.13,4.8,4.8,0,0,0,3.17,1.1,5.34,5.34,0,0,0,4.06-1.65,5.76,5.76,0,0,0,1.57-4.15,6,6,0,0,0-1.51-4.22"/><path class="cls-11" d="M96.37,794.64a8.88,8.88,0,1,1-8.88,8.88,8.88,8.88,0,0,1,8.88-8.88m0-1.14a10,10,0,1,0,10,10,10,10,0,0,0-10-10"/><path class="cls-11" d="M125.37,794.64a8.88,8.88,0,1,1-8.88,8.88,8.89,8.89,0,0,1,8.88-8.88m0-1.14a10,10,0,1,0,10,10,10,10,0,0,0-10-10"/><path class="cls-11" d="M132.6,804.48l-2.14-.89V800.9l-6.64-2.75-2.94,1.3v3.06l0,0-2.6,1.08v2.79l2.77,1.2,2.81-1.16.19.07,5.67,2.34.13,0,.12,0,2.63-1.12.2-.09v-3.06ZM129.53,808l0,0v0l-5-2v-2l5,2v.08h0Zm.33-2.51-1.57-.68,1.7-.72,1.61.68Zm2.28,1.66-1.94.83v-1.89l1.94-.82Zm.46-2.71-2.14-.89V800.9l-6.64-2.75-2.94,1.3v3.06l0,0-2.6,1.08v2.79l2.77,1.2,2.81-1.16.19.07,5.67,2.34.13,0,.12,0,2.63-1.12.2-.09v-3.06ZM129.53,808l0,0v0l-5-2v-2l5,2v.08h0Zm.33-2.51-1.57-.68,1.7-.72,1.61.68Zm2.28,1.66-1.94.83v-1.89l1.94-.82Zm.46-2.71-2.14-.89V800.9l-6.64-2.75-2.94,1.3v3.06l0,0-2.6,1.08v2.79l2.77,1.2,2.81-1.16.19.07,5.67,2.34.13,0,.12,0,2.63-1.12.2-.09v-3.06ZM129.53,808l0,0v0l-5-2v-2l5,2v.08h0Zm.33-2.51-1.57-.68,1.7-.72,1.61.68Zm2.28,1.66-1.94.83v-1.89l1.94-.82Z"/><path class="cls-11" d="M154.37,794.64a8.88,8.88,0,1,1-8.88,8.88,8.89,8.89,0,0,1,8.88-8.88m0-1.14a10,10,0,1,0,10,10,10,10,0,0,0-10-10m0,3a1.52,1.52,0,1,0,1.51,1.53,1.34,1.34,0,0,0-1.51-1.53m2.71,3.82a.69.69,0,0,0-.49-.2h-4.45a.64.64,0,0,0-.49.2.66.66,0,0,0-.2.49v4.43h1.23v5.26h3.37v-5.26h1.24v-4.43a.67.67,0,0,0-.21-.49m0,0a.69.69,0,0,0-.49-.2h-4.45a.64.64,0,0,0-.49.2.66.66,0,0,0-.2.49v4.43h1.23v5.26h3.37v-5.26h1.24v-4.43a.67.67,0,0,0-.21-.49m-2.71-.79a1.52,1.52,0,1,0-1.51-1.5,1.33,1.33,0,0,0,1.51,1.5m2.71.79a.69.69,0,0,0-.49-.2h-4.45a.64.64,0,0,0-.49.2.66.66,0,0,0-.2.49v4.43h1.23v5.26h3.37v-5.26h1.24v-4.43a.67.67,0,0,0-.21-.49m-2.71-.79a1.52,1.52,0,1,0-1.51-1.5,1.33,1.33,0,0,0,1.51,1.5"/><path class="cls-11" d="M38.37,794.64a8.88,8.88,0,1,1-8.88,8.88,8.89,8.89,0,0,1,8.88-8.88m0-1.14a10,10,0,1,0,10,10,10,10,0,0,0-10-10"/><path class="cls-11" d="M38.26,801.72l-1.45.76a1.58,1.58,0,0,0-.57-.68,1.29,1.29,0,0,0-.63-.19c-1,0-1.45.64-1.45,1.91a2.39,2.39,0,0,0,.36,1.39,1.26,1.26,0,0,0,1.09.53,1.35,1.35,0,0,0,1.33-.93l1.34.68a3.2,3.2,0,0,1-1.18,1.24,3.13,3.13,0,0,1-1.67.46,3.2,3.2,0,0,1-2.34-.89,3.36,3.36,0,0,1-.89-2.48,3.32,3.32,0,0,1,.9-2.45,3.38,3.38,0,0,1,5.16.65"/><path class="cls-11" d="M44.51,801.72l-1.43.76a1.53,1.53,0,0,0-.58-.68,1.27,1.27,0,0,0-.64-.19c-1,0-1.46.64-1.46,1.91a2.39,2.39,0,0,0,.37,1.39,1.26,1.26,0,0,0,1.09.53,1.35,1.35,0,0,0,1.33-.93l1.36.68a3.33,3.33,0,0,1-1.2,1.24,3.09,3.09,0,0,1-1.65.46,3.17,3.17,0,0,1-2.35-.89,3.36,3.36,0,0,1-.88-2.48,3.32,3.32,0,0,1,.9-2.45,3.05,3.05,0,0,1,2.27-.91,3,3,0,0,1,2.87,1.56"/><rect class="cls-11" x="641.69" y="789.36" width="0.5" height="28.33"/></g></g></g><text class="cls-15" transform="translate(552.26 141.73)">Push</text><text class="cls-16" transform="translate(149.58 347.24)">design week</text><text class="cls-16" transform="translate(189.27 524.41)">1 wk</text><text class="cls-16" transform="translate(511 347.24)">implementatie &amp; ontwikkeling</text><text class="cls-16" transform="translate(1002.79 347.24)">delivery</text><rect class="cls-17" x="92.13" y="381.31" width="49.61" height="38.98"/><rect class="cls-17" x="155.91" y="381.31" width="49.61" height="38.98"/><rect class="cls-17" x="92.13" y="427.37" width="49.61" height="38.98"/><rect class="cls-17" x="155.91" y="427.37" width="49.61" height="38.98"/><rect class="cls-17" x="219.68" y="381.31" width="49.61" height="85.04"/><rect class="cls-17" x="283.46" y="381.31" width="49.61" height="85.04"/><rect class="cls-17" x="347.24" y="381.31" width="623.62" height="85.04"/><rect class="cls-17" x="985.04" y="381.31" width="113.39" height="85.04"/><path class="cls-11" d="M240.87,438h-9.53l0-.76c0-1,0-1.83.07-2.63.09-2.61.16-4.67,0-8.11l0-.78h.78l1.36,0,.63,0,0-.93c-.06-2.17,0-4.4.13-6.55,0-1,.08-2,.1-2.95l-.11-.07a1.55,1.55,0,0,1-.75-.87,3.11,3.11,0,0,1,0-1.18l.44-3.49.69,0c1.21.06,2.16,0,3.16,0l.71,0,.06.7c.05.54.14,1.12.23,1.68.22,1.4.32,2.15,0,2.66a1.72,1.72,0,0,1-.77.67c-.07,3.16-.07,6.53,0,10.26l1.25.06.73,0,.72,0v.73c0,.06-.07,2-.13,3.08a61,61,0,0,0,.17,7.4Zm-8-1.5h6.39a59,59,0,0,1-.14-7c0-.71.08-1.65.11-2.29h0c-.53,0-1.07-.06-1.89-.06h-.74l0-.73c-.1-4.19-.11-7.92,0-11.41a1.1,1.1,0,0,1,.73-.91l.2-.11a12.17,12.17,0,0,0-.19-1.69c-.06-.36-.12-.72-.17-1.08-.58,0-1.2,0-1.89,0l-.27,2.12a4.92,4.92,0,0,0,0,.52l.15.09a1.38,1.38,0,0,1,.78,1.11h0c0,1-.07,2.12-.12,3.22-.08,2.13-.17,4.33-.12,6.45l.07,2.44h-.76l-1.36,0-.61,0c.13,3.05.06,5,0,7.47C232.91,435.26,232.89,435.86,232.88,436.52ZM237.47,414Z"/><path class="cls-11" d="M246.07,438c-.63,0-1.22,0-2.1-.12l-.66-.07,0-.66c0-1-.19-9,.07-11.76a5.21,5.21,0,0,1-2.46-3.11,4.46,4.46,0,0,1,1.35-4.08,2.68,2.68,0,0,1,1.81-.82h.76v.76c0,.51,0,1.14,0,1.72v.37l.57.39.43.31.44-.22.41-.21c0-.76,0-1.63.06-2.42l0-.77.77.07a4.24,4.24,0,0,1,3.2,3.82,4.7,4.7,0,0,1-2.71,4.13l-.17.11c.06,1.3.32,5.67.49,8.69l.22,3.78-.75,0C247.09,438,246.57,438,246.07,438Zm-1.29-1.56a15.69,15.69,0,0,0,2.18,0l-.13-2.26c-.12-1.93-.25-4.2-.35-6-.2-3.51-.2-3.51.14-3.77.16-.12.36-.25.58-.39.94-.59,2-1.26,2-2.86a2.62,2.62,0,0,0-1.06-1.88c0,.56,0,1.12,0,1.6l0,.46-.4.22c-.39.22-.61.32-.88.46s-.44.21-.8.4l-.39.2-.36-.24c-.41-.26-.62-.41-.86-.58l-.85-.58-.34-.23v-1.18c0-.19,0-.38,0-.57a3,3,0,0,0-1,2.63,3.58,3.58,0,0,0,2.05,2.3l.64.21-.13.65C244.64,426.39,244.72,433.19,244.78,436.44Z"/><path class="cls-11" d="M254.28,438c-.31,0-.76,0-1.44,0l-.74,0v-.74c0-3,.1-6.1.16-9.21.07-4.21.15-8.58.2-12.73v-.16l.06-.13.18-.52c1.68-4.82,1.8-4.82,2.43-4.82s.83.49,1.34,2.11c.21.66.45,1.42.69,2a6,6,0,0,1,.41,1.31c.1,2.62.05,5.45,0,8.19,0,.93,0,1.86,0,2.75L257.45,438l-.71,0h-2.46Zm-.66-1.5c.89,0,1.13,0,1.23,0H256l.1-10.51c0-.89,0-1.81,0-2.75,0-2.7.09-5.49,0-8.05,0-.14-.18-.55-.3-.85-.26-.61-.49-1.36-.71-2-.25.67-.57,1.56-1,2.67l-.16.45c-.05,4.12-.13,8.44-.2,12.62C253.71,430.91,253.66,433.74,253.62,436.52Z"/><path class="cls-11" d="M304.65,438h-9.53l0-.76c0-1,.05-1.83.07-2.63.09-2.61.16-4.67,0-8.11l0-.78h.78l1.36,0,.63,0,0-.93c-.06-2.17,0-4.4.13-6.55,0-1,.08-2,.1-2.95l-.11-.07a1.55,1.55,0,0,1-.75-.87,3.35,3.35,0,0,1,0-1.18l.45-3.49.69,0c1.21.06,2.16,0,3.16,0l.71,0,.06.7c0,.54.14,1.12.23,1.68.22,1.4.32,2.15,0,2.66a1.72,1.72,0,0,1-.77.67c-.07,3.16-.07,6.53,0,10.26l1.25.06.73,0,.72,0v.73c0,.06-.07,2-.13,3.08a61,61,0,0,0,.17,7.4Zm-8-1.5h6.39a59,59,0,0,1-.14-7c0-.71.08-1.65.11-2.29h0c-.53,0-1.07-.06-1.9-.06h-.73l0-.73c-.1-4.19-.11-7.92,0-11.41a1.1,1.1,0,0,1,.73-.91l.2-.11a11,11,0,0,0-.2-1.69c-.05-.36-.11-.72-.16-1.08-.58,0-1.2,0-1.89,0l-.27,2.12a4.92,4.92,0,0,0,0,.52l.15.09a1.38,1.38,0,0,1,.78,1.11h0c0,1-.07,2.12-.12,3.22-.08,2.13-.18,4.33-.12,6.45l.07,2.44h-.76l-1.36,0-.62,0c.14,3.05.07,5,0,7.47C296.69,435.26,296.67,435.86,296.66,436.52ZM301.25,414Z"/><path class="cls-11" d="M309.85,438c-.63,0-1.22,0-2.1-.12l-.66-.07,0-.66c0-1-.19-9,.07-11.76a5.21,5.21,0,0,1-2.46-3.11A4.46,4.46,0,0,1,306,418.2a2.68,2.68,0,0,1,1.81-.82h.76v.76c0,.51,0,1.14,0,1.72v.37l.56.39.44.31.44-.22.41-.21c0-.76,0-1.63.06-2.42l0-.77.77.07a4.24,4.24,0,0,1,3.2,3.82,4.7,4.7,0,0,1-2.71,4.13l-.17.11c.06,1.3.32,5.67.49,8.69l.22,3.78-.75,0C310.87,438,310.35,438,309.85,438Zm-1.29-1.56a15.69,15.69,0,0,0,2.18,0l-.13-2.26c-.12-1.93-.25-4.2-.35-6-.2-3.51-.2-3.51.14-3.77.16-.12.36-.25.58-.39.94-.59,2-1.26,2-2.86a2.62,2.62,0,0,0-1.06-1.88c0,.56,0,1.12,0,1.6l0,.46-.4.22c-.39.22-.61.32-.88.46s-.44.21-.8.4l-.39.2-.36-.24c-.41-.26-.62-.41-.86-.58l-.85-.58-.34-.23v-1.75a3,3,0,0,0-.94,2.63,3.58,3.58,0,0,0,2.05,2.3l.64.21-.13.65C308.42,426.39,308.49,433.19,308.56,436.44Z"/><path class="cls-11" d="M318.06,438c-.31,0-.76,0-1.44,0l-.74,0v-.74c0-3,.1-6.1.16-9.21.07-4.21.15-8.58.2-12.73v-.16l.06-.13.18-.52c1.68-4.82,1.8-4.82,2.43-4.82s.83.49,1.34,2.11c.21.66.45,1.42.69,2a6,6,0,0,1,.41,1.31c.1,2.62.05,5.45,0,8.19,0,.93,0,1.86,0,2.75L321.23,438l-.71,0h-2.46Zm-.66-1.5c.89,0,1.13,0,1.23,0h1.11l.1-10.51c0-.89,0-1.81,0-2.75,0-2.7.08-5.49,0-8.05,0-.14-.18-.55-.3-.85-.26-.61-.49-1.36-.71-2-.25.67-.57,1.56-.95,2.67l-.16.45c-.05,4.12-.13,8.44-.2,12.62C317.49,430.91,317.44,433.74,317.4,436.52Z"/><path class="cls-11" d="M125.76,460.2a2.3,2.3,0,0,1-1.52.73c-.82.12-6.3.15-12.28.15h-5.42a2.62,2.62,0,0,1-2-.63,2.1,2.1,0,0,1-.47-1.49l-.16-8.71c0-.62-.07-5.66-.07-6.74l0-5.08A2.45,2.45,0,0,1,105,436a2.88,2.88,0,0,1,1.34-.19l2.15.08h.06l-.06,1.5h-.1l-2.11-.07a1.93,1.93,0,0,0-.66.05q-.3.13-.3,1.05l0,5.07c0,1.08.06,6.11.07,6.73l.16,8.7a1.15,1.15,0,0,0,.07.51,1.62,1.62,0,0,0,.89.14c4,0,16.39,0,17.48-.13.46-.07.55-.15.56-.17a1.13,1.13,0,0,0,0-.38c0-.78,0-2.67,0-4.67.56-1.12,1-2.05,1.48-2.91,0,.88,0,1.85,0,2.8,0,2,0,4,0,4.75A2,2,0,0,1,125.76,460.2Z"/><path class="cls-11" d="M108.5,435.9a8.23,8.23,0,0,0-.1,1.49h.1l.06-1.5Z"/><path class="cls-11" d="M125.28,436.51c-.58-.53-2.87-.49-3.92-.44v-.36a1.15,1.15,0,0,0-.08-.62c-.14-.31-.48-.66-1.32-.6a15.11,15.11,0,0,1-1.78,0H118a.84.84,0,0,1-.14-.22,1.4,1.4,0,0,0-.1-.16,3.3,3.3,0,0,0-2.79-1.5,3.42,3.42,0,0,0-3.06,1.7l0,.08,0,.1h0a7.38,7.38,0,0,0-2.2.1,1.65,1.65,0,0,0-.51.18,1.36,1.36,0,0,0-.59,1,.28.28,0,0,0,0,.09h.06l-.06,1.5h-.1c0,.05,0,.11,0,.16a1.93,1.93,0,0,0,.28,1.05,1.53,1.53,0,0,0,1.38.64c.77-.05,1.53-.1,2.38-.14a44.21,44.21,0,0,1,4.75,0c1,0,2,.06,3,0a1.29,1.29,0,0,0,.94-.33,1.15,1.15,0,0,0,.28-1l0-.25a15.43,15.43,0,0,1,2.9.12,1.58,1.58,0,0,1,.09.66c0,.06,0,.46,0,1,0,.37,0,.8,0,1.23.58-1,1-1.62,1-1.64a2.84,2.84,0,0,1,.57-.69A2.23,2.23,0,0,0,125.28,436.51Zm-8,1.05a46.69,46.69,0,0,0-4.88,0c-.83,0-1.61.09-2.42.16a.66.66,0,0,1,0-.27,8.28,8.28,0,0,1,.08-1.41,6,6,0,0,1,1.7-.06,1.75,1.75,0,0,0,.63,0,1.52,1.52,0,0,0,.92-.87l0-.06a2,2,0,0,1,1.69-.91h0a1.84,1.84,0,0,1,1.53.77.75.75,0,0,0,.07.12,1.74,1.74,0,0,0,.82.85,1.83,1.83,0,0,0,.72.14,16.84,16.84,0,0,0,1.74,0c0,.12,0,.26,0,.41s0,.32,0,.46a1.4,1.4,0,0,0,0,.36l0,.37C119,437.61,118.12,437.59,117.24,437.56Z"/><path class="cls-11" d="M129.77,440.35a8.08,8.08,0,0,0-1.58-1.36,1.32,1.32,0,0,0-1-.29,1.51,1.51,0,0,0-1,.76s-.13.2-.32.53c-.33.55-.89,1.49-1.55,2.65a76,76,0,0,0-5.08,10.13l0,.12c-.59,3.33,0,3.61.29,3.73a.61.61,0,0,0,.3.08c.32,0,.92-.25,2.89-1.28l.21-.11.11-.22,1.55-3.06,1.47-2.87c.59-1.12,1.19-2.28,2-3.74l1.52-2.91C130,441.66,130.26,441.1,129.77,440.35Zm-2.33-.06a7.94,7.94,0,0,1,1.06.89,6,6,0,0,1-.32.66h0L127,441C127.19,440.7,127.34,440.44,127.44,440.29Zm-.77,4.43c-1.92,3.65-2.81,5.35-4.89,9.48l-1.28.65a13,13,0,0,1,.18-1.64,85.82,85.82,0,0,1,5.54-10.87l1.25.85Z"/><path class="cls-11" d="M120.82,393.13a3.31,3.31,0,0,0,.62-.05,2.9,2.9,0,0,0,2.77-3.17,3.3,3.3,0,0,0-3.08-3.35,3,3,0,0,0-3,1.41,3.69,3.69,0,0,0,.13,3.84A3,3,0,0,0,120.82,393.13Zm-1.41-4.38a1.43,1.43,0,0,1,1.33-.7h.36a1.81,1.81,0,0,1,1.61,1.9,1.46,1.46,0,0,1-1.4,1.63h-.08a1.62,1.62,0,0,1-1.74-.64A2.16,2.16,0,0,1,119.41,388.75Z"/><path class="cls-11" d="M130.35,401.27l.59-.35-.3-.62a42.66,42.66,0,0,0-4.41-5.48c0-.12,0-.24,0-.36v-.75l-10.54.28-.12,1.71a58.77,58.77,0,0,1-7.77.41l-.88-.05.1.88V397c-.86,1.13-1.54,2.12-2.13,3s-1,1.41-1.42,2l-.53.69.75.42a15.85,15.85,0,0,1,1.94,1.54l.59.5a10.21,10.21,0,0,1,.9.8c0,.56-.1,1.12-.17,1.68l-.1.84H109c0,2.75.07,4.23.12,5l-1.5.05,0,1.5L110,415l.84,0-.13-.84s-.12-.85-.15-5.62l2.63,0c.19,3.38.13,5.69.13,5.72l0,.75,2.63.08,0-1.5-1.14,0c0-.94,0-2.71-.14-5h1.55l.06-.71c0-.15,0-.33,0-.53h2.11c-.18.64-.35,1.29-.61,2.64,0,.15-.06.31.52,3.55-.38,0-.79,0-1,0l.11,1.5c.38,0,1.43,0,1.8,0l.93,0-.17-.91c-.3-1.68-.63-3.56-.67-4a24.24,24.24,0,0,1,.7-2.86l1.3,0h.85a25.82,25.82,0,0,1,.13,6.9l0,.81.82,0a14.15,14.15,0,0,1,1.88.09l.24-1.48a10,10,0,0,0-1.34-.1,24.85,24.85,0,0,0-.17-6.22l1.81,0h.88l-.14-.87a7.19,7.19,0,0,1-.11-1.09c0-.21,0-.42,0-.63A20.25,20.25,0,0,1,130.35,401.27Zm-1.42-.89a22.8,22.8,0,0,0-2.76,2.1c0-1.78.08-3.55.08-5.4C127.16,398.13,128.32,399.53,128.93,400.38ZM107.16,404l-.55-.46c-.43-.39-1-.86-1.5-1.25.33-.46.66-.94,1-1.45l1.08-1.56a44.84,44.84,0,0,1,0,4.78Zm1.41-6.35c2.14,0,4.74-.21,6.82-.41-.07,1-.13,2.1-.19,3.2l-.49,6.59c-2.21,0-4,0-6.2,0A45.48,45.48,0,0,0,108.57,397.64Zm16.05,8.06-3.35,0c-1.7,0-3.44.06-4.87.06,0-.7.09-1.5.13-2.36s.11-1.93.16-2.92l.38-5.07,7.66-.2c0,3.49,0,6.63-.13,9.94C124.6,405.34,124.61,405.52,124.62,405.7Z"/><path class="cls-11" d="M111.49,395.26a3.46,3.46,0,0,0,.7.07,2.75,2.75,0,0,0,2.19-1,3.3,3.3,0,0,0,.43-3.23,3.13,3.13,0,0,0-2.52-2h-.09a3.11,3.11,0,0,0-.71,6.17ZM110.35,392a1.6,1.6,0,0,1,1.74-1.41h0a1.68,1.68,0,0,1,1.29,1.07,1.82,1.82,0,0,1-.19,1.74,1.49,1.49,0,0,1-1.44.39A1.61,1.61,0,0,1,110.35,392Z"/><path class="cls-11" d="M176.26,406.33A9.87,9.87,0,0,1,168.14,391h0a10.82,10.82,0,0,1,12.2-3.81,7.68,7.68,0,0,1,3.6,2.63,11.57,11.57,0,0,1,2.09,10,7.76,7.76,0,0,1-2.23,3.91,9.27,9.27,0,0,1-3.05,1.66,13.28,13.28,0,0,1-4.26.91Zm-6.9-14.42a8.58,8.58,0,0,0-.32,8.56,8.39,8.39,0,0,0,7.41,4.36,12,12,0,0,0,3.79-.82,7.86,7.86,0,0,0,2.56-1.37,6.32,6.32,0,0,0,1.78-3.17,10.1,10.1,0,0,0-1.81-8.68,6.84,6.84,0,0,0-1.34-1.31,6.59,6.59,0,0,0-1.61-.84,9.29,9.29,0,0,0-10.46,3.27Z"/><path class="cls-11" d="M172.89,402.65a4.29,4.29,0,0,1-2.57-1.89,6.26,6.26,0,0,1-.94-2.91,8.65,8.65,0,0,1,2.7-7l1,1.1a7.17,7.17,0,0,0-2.22,5.8,4.86,4.86,0,0,0,.71,2.23,2.78,2.78,0,0,0,1.65,1.25Z"/><path class="cls-11" d="M191.77,415a4,4,0,0,1-1.62-.34,8.77,8.77,0,0,1-3-2.69q-.75-.93-1.5-1.83c-.93-1.12-1.89-2.28-2.81-3.49l-.6-.79.92-.37a3.75,3.75,0,0,0,2.57-2.18l1-1.64.44,1.72a4.54,4.54,0,0,0,1.86,2.31l2.77,1.95a8.74,8.74,0,0,1,2.44,2.28,3.47,3.47,0,0,1,.18,3.74A3,3,0,0,1,191.77,415Zm-7.16-8.5c.72.92,1.47,1.81,2.19,2.68.5.61,1,1.22,1.51,1.85a7.46,7.46,0,0,0,2.46,2.26,2,2,0,0,0,2.38-.43,2.08,2.08,0,0,0-.18-2.12,7.49,7.49,0,0,0-2.05-1.86l-2.77-2a7.19,7.19,0,0,1-1.82-1.8A4.13,4.13,0,0,1,184.61,406.46Z"/><path class="cls-11" d="M179.94,461c-.42,0-.84,0-1.25,0l.05-1.5a34,34,0,0,0,3.91-.08l.11,1.5C181.83,461,180.88,461,179.94,461Z"/><path class="cls-11" d="M183.8,458.21c-1.38-.09-2.81-.06-4.19,0h-2v-1.5h2c1.41,0,2.86-.05,4.31.05Z"/><path class="cls-11" d="M184.69,455.23h-.84l-6.81,0h-.72l0-.72c0-1.12-.32-4.28-1.24-5.56l-.74-1a12.93,12.93,0,0,1-2.64-4.75,7.59,7.59,0,0,1,1.16-5.85,10.48,10.48,0,0,1,4.65-3.73,10,10,0,0,1,3.58-.84,8.8,8.8,0,0,1,8,4.78,9.16,9.16,0,0,1-.74,9.11,16.53,16.53,0,0,1-1.25,1.59,13.27,13.27,0,0,0-1.34,1.74,7.35,7.35,0,0,0-1.11,4.43Zm-6.94-1.53,5.31,0a9.19,9.19,0,0,1,1.37-4.55,17.89,17.89,0,0,1,1.48-1.93c.42-.49.81-.95,1.16-1.45a7.67,7.67,0,0,0,.63-7.6,7.3,7.3,0,0,0-6.59-3.95,8.61,8.61,0,0,0-3,.72,8.83,8.83,0,0,0-4,3.18,6,6,0,0,0-1,4.68A11.73,11.73,0,0,0,175.5,447c.26.34.52.68.76,1C177.33,449.51,177.66,452.34,177.75,453.7Z"/><polyline class="cls-18" points="333.07 488.98 333.07 496.06 92.13 496.06 92.13 488.98"/><text class="cls-16" transform="translate(699.46 524.41)">3 wk</text><polyline class="cls-18" points="347.24 488.98 347.24 496.06 1098.42 496.06 1098.42 488.98"/><path class="cls-11" d="M696.82,435.24a58.57,58.57,0,0,1-6.23-6.07l-.11-.13a9.09,9.09,0,0,0-2.61-2.28l-1,2a7.15,7.15,0,0,1,1.94,1.75l.12.13a58.49,58.49,0,0,0,4.41,4.5,127.51,127.51,0,0,1-14.89-.13l-.15,2.24c2.94.2,5.91.31,8.88.31,2,0,3.93-.06,5.88-.15a66.82,66.82,0,0,0-6.17,6.86l1.78,1.38a65.57,65.57,0,0,1,8.19-8.72l1-.86Z"/><path class="cls-11" d="M659.38,402c-1.69.09-16.55,1.34-17.15,17.22,0,.74.12,7.24,3.07,9.56l1.39-1.77c-1.58-1.24-2.2-5.44-2.21-7.75.51-13.56,12.6-14.88,15-15a16.45,16.45,0,0,1,10.8,4.14c2.75,2.6,4.14,6.24,4.15,10.83,0,5.08-1.3,8.94-3.87,11.48-3.19,3.14-7.82,3.74-11.12,3.67-2.86-.05-5.49-.13-8.09-.2-8.67-.23-16.86-.46-31.08.2l.1,2.25c14.14-.66,22.29-.43,30.92-.2,2.6.07,5.25.15,8.11.2h.46c3.7,0,8.68-.78,12.27-4.32,3-3,4.55-7.37,4.55-13.09,0-5.22-1.64-9.42-4.85-12.45A18.64,18.64,0,0,0,659.38,402Z"/><line class="cls-17" x1="595.28" y1="488.98" x2="595.28" y2="496.06"/><line class="cls-17" x1="850.39" y1="488.98" x2="850.39" y2="496.06"/><path class="cls-11" d="M1060.92,415.69l-.05-1.05h-1.06l-5.25,0c3.11-1.63,3.86-3.87,4-4.88a6.14,6.14,0,0,0-4.59-6.79c-3.82-1.1-9.13.82-13.38,9-2.38-4.85-5.48-6.32-7.81-6a4.11,4.11,0,0,0-3.53,4.05c0,1.59.85,3.41,3.06,4.85-5.23.12-8.82.23-8.86.23l-1.07,0,0,1.07c-.26,10.9,0,11.24.17,11.58.49.75,1.37.66,2.07.59l.35,0c.09,2.05,0,9-.08,15.2l0,1.15H1026c4.19,0,30.89.33,31.16.33l1.17,0,0-1.17c-.12-5.19-.26-13.29-.18-16a2.64,2.64,0,0,0,2.48-.57C1061,426.92,1061.51,426.31,1060.92,415.69Zm-7.54-10.61a3.89,3.89,0,0,1,3,4.24c-.46,2.63-4.52,5.44-14.36,4.84C1045.76,406.17,1050.27,404.19,1053.38,405.08Zm-20.21,3.1c1.66-.26,4.22,1.3,6.19,6.44a.54.54,0,0,1,0,.11h-.91c-5.09-1-6.88-3.13-6.86-4.7A1.88,1.88,0,0,1,1033.17,408.18Zm-8.62,17.92c0-1.59,0-5.24.07-8.79,2.17-.06,7.41-.2,13.7-.31l1.45,0c.23,3.69.48,8,.68,12.1-6.45,0-11.38.19-13.2.26a8,8,0,0,0-.17-2.22C1026.63,426,1025.34,426,1024.55,426.1Zm2.73,5.48c1.76-.07,6.74-.24,13.27-.26.24,5.22.36,9.68.21,11.24-5.51-.06-10.93-.12-13.58-.13C1027.27,437.23,1027.29,433.83,1027.28,431.58Zm15.71,11c.15-2.11,0-6.53-.18-11.27,4,0,8.46.09,13,.28,0,2.45.08,6,.19,11.14Zm15.87-16.92-.55-.07a2.32,2.32,0,0,0-1.86.22c-.33.24-.54.4-.58,3.53-4.63-.19-9.13-.27-13.16-.28-.23-4.69-.51-9.37-.69-12.13,6.38-.09,12-.12,16.71-.07C1058.91,420.47,1059,424.34,1058.86,425.67Z"/></g></svg>